<svg version="1.1" xmlns="http://www.w3.org/2000/svg" x="0px" y="0px" width="600px" height="600px" viewBox="-62.369 -70.036 600 600" enable-background="new -62.369 -70.036 600 600">
<defs>
</defs>
<polyline fill="none" stroke="#9498A6" stroke-width="5" stroke-miterlimit="10" points="219.003,244.494 148.688,174.178 
	310.791,12.074 "/>
<polyline fill="none" stroke="#9498A6" stroke-width="5" stroke-miterlimit="10" points="290.6,240.708 225.831,175.94 
	365.84,35.931 "/>
<polyline fill="none" stroke="#9498A6" stroke-width="5" stroke-miterlimit="10" points="350.145,234.894 292.796,177.545 
	405.281,65.059 "/>
<line fill="none" stroke="#9498A6" stroke-width="5" stroke-miterlimit="10" x1="88.421" y1="427.76" x2="191.424" y2="324.757"/>
<line fill="none" stroke="#9498A6" stroke-width="5" stroke-miterlimit="10" x1="191.424" y1="324.757" x2="135.18" y2="268.513"/>
<polyline fill="none" stroke="#9498A6" stroke-width="5" stroke-miterlimit="10" points="256.748,242.369 313.974,299.594 
	148.688,464.88 "/>
<line fill="none" stroke="#9498A6" stroke-width="5" stroke-miterlimit="10" x1="3.631" y1="220.464" x2="139.631" y2="220.464"/>
<line fill="none" stroke="#9498A6" stroke-width="5" stroke-miterlimit="10" x1="139.631" y1="220.464" x2="229.298" y2="310.131"/>
<polyline fill="none" stroke="#9498A6" stroke-width="5" stroke-miterlimit="10" points="286.373,205.207 337.631,256.464 
	483.631,256.464 "/>
<polyline fill="none" stroke="#9498A6" stroke-width="5" stroke-miterlimit="10" points="346.953,293.359 393.665,340.071 
	249.616,484.12 "/>
<circle fill="#FFFFFF" stroke="#8C6239" stroke-width="5" stroke-miterlimit="10" cx="349.768" cy="234.997" r="7.339"/>
<circle fill="#FFFFFF" stroke="#8C6239" stroke-width="5" stroke-miterlimit="10" cx="286.768" cy="204.997" r="7.339"/>
<circle fill="#FFFFFF" stroke="#8C6239" stroke-width="5" stroke-miterlimit="10" cx="290.768" cy="240.997" r="7.339"/>
<circle fill="#FFFFFF" stroke="#8C6239" stroke-width="5" stroke-miterlimit="10" cx="257.768" cy="243.997" r="7.339"/>
<circle fill="#FFFFFF" stroke="#8C6239" stroke-width="5" stroke-miterlimit="10" cx="218.768" cy="243.997" r="7.339"/>
<circle fill="#FFFFFF" stroke="#8C6239" stroke-width="5" stroke-miterlimit="10" cx="229.768" cy="309.997" r="7.339"/>
<circle fill="#FFFFFF" stroke="#8C6239" stroke-width="5" stroke-miterlimit="10" cx="134.768" cy="268.997" r="7.339"/>
<circle fill="#FFFFFF" stroke="#8C6239" stroke-width="5" stroke-miterlimit="10" cx="346.768" cy="292.997" r="7.339"/>
<polyline fill="none" stroke="#9498A6" stroke-width="5" stroke-miterlimit="10" points="123.376,177.389 76.001,130.013 
	199.534,6.48 "/>
<circle fill="none" stroke="#8C6239" stroke-width="5" stroke-miterlimit="10" cx="243.35" cy="243.35" r="240.85"/>
<circle fill="#FFFFFF" stroke="#8C6239" stroke-width="5" stroke-miterlimit="10" cx="120.768" cy="176.997" r="7.339"/>
</svg>
