<?xml version="1.0" encoding="utf-8"?>
<!-- Generator: Adobe Illustrator 15.0.0, SVG Export Plug-In  -->
<!DOCTYPE svg PUBLIC "-//W3C//DTD SVG 1.1//EN" "http://www.w3.org/Graphics/SVG/1.1/DTD/svg11.dtd" [
	<!ENTITY ns_flows "http://ns.adobe.com/Flows/1.0/">
]>
<svg version="1.1"
	 xmlns="http://www.w3.org/2000/svg" xmlns:xlink="http://www.w3.org/1999/xlink" xmlns:a="http://ns.adobe.com/AdobeSVGViewerExtensions/3.0/"
	 x="0px" y="0px" width="600px" height="600px" viewBox="-31 -40 600 600" enable-background="new -31 -40 600 600"
	 xml:space="preserve">
<defs>
</defs>
<rect x="1.5" y="1.5" fill="none" stroke="#9F8C7A" stroke-width="3" stroke-miterlimit="10" width="534" height="522"/>
<g>
	<ellipse fill="#9F8C7A" cx="265.403" cy="262.629" rx="207.16" ry="207.165"/>
	<g>
		<path fill="#9F8C7A" d="M468.063,262.629c-0.151,45.273-15.254,89.572-43.259,125.217
			c-27.384,34.854-65.941,59.894-108.783,71.076c-44.337,11.573-92.43,7.285-134.148-11.563
			c-40.209-18.165-73.537-49.552-94.701-88.183c-21.988-40.133-29.26-87.616-21.251-132.589
			c7.81-43.853,30.504-84.021,63.284-114.039c33.055-30.27,76.179-48.59,120.801-52.018c45.46-3.492,90.992,8.774,128.816,34.11
			C434.413,131.878,467.84,195.948,468.063,262.629c0.02,5.803,9.02,5.805,9,0c-0.15-45.051-14.487-89.157-41.206-125.464
			c-26.045-35.391-62.876-61.889-104.541-75.729c-43.289-14.38-91.245-13.783-134.363,0.852
			c-41.617,14.125-77.787,41.518-103.552,76.995c-53.799,74.08-51.868,178.124,3.124,250.908
			c26.5,35.075,63.649,61.148,105.519,74.453c43.47,13.813,91.408,12.64,134.334-2.557c40.583-14.367,75.785-41.354,101.028-76.112
			c25.896-35.66,39.511-79.379,39.657-123.347C477.082,256.824,468.082,256.826,468.063,262.629z"/>
	</g>
</g>
<rect x="177" y="172" fill="#9F8C7A" stroke="#FFFFFF" stroke-width="6" stroke-miterlimit="10" width="182" height="182"/>
<rect x="211" y="205" fill="#9F8C7A" stroke="#FFFFFF" stroke-width="2" stroke-miterlimit="10" width="115" height="116"/>
<line fill="none" stroke="#FFFFFF" stroke-width="8" stroke-miterlimit="10" x1="197" y1="166" x2="197" y2="133"/>
<line fill="none" stroke="#FFFFFF" stroke-width="8" stroke-miterlimit="10" x1="225" y1="166" x2="225" y2="133"/>
<line fill="none" stroke="#FFFFFF" stroke-width="8" stroke-miterlimit="10" x1="253" y1="166" x2="253" y2="133"/>
<line fill="none" stroke="#FFFFFF" stroke-width="8" stroke-miterlimit="10" x1="281" y1="166" x2="281" y2="133"/>
<line fill="none" stroke="#FFFFFF" stroke-width="8" stroke-miterlimit="10" x1="309" y1="166" x2="309" y2="133"/>
<line fill="none" stroke="#FFFFFF" stroke-width="8" stroke-miterlimit="10" x1="337" y1="166" x2="337" y2="133"/>
<line fill="none" stroke="#FFFFFF" stroke-width="8" stroke-miterlimit="10" x1="197" y1="392" x2="197" y2="359"/>
<line fill="none" stroke="#FFFFFF" stroke-width="8" stroke-miterlimit="10" x1="225" y1="392" x2="225" y2="359"/>
<line fill="none" stroke="#FFFFFF" stroke-width="8" stroke-miterlimit="10" x1="253" y1="392" x2="253" y2="359"/>
<line fill="none" stroke="#FFFFFF" stroke-width="8" stroke-miterlimit="10" x1="281" y1="392" x2="281" y2="359"/>
<line fill="none" stroke="#FFFFFF" stroke-width="8" stroke-miterlimit="10" x1="309" y1="392" x2="309" y2="359"/>
<line fill="none" stroke="#FFFFFF" stroke-width="8" stroke-miterlimit="10" x1="337" y1="392" x2="337" y2="359"/>
<line fill="none" stroke="#FFFFFF" stroke-width="8" stroke-miterlimit="10" x1="171" y1="329" x2="138" y2="329"/>
<line fill="none" stroke="#FFFFFF" stroke-width="8" stroke-miterlimit="10" x1="171" y1="301" x2="138" y2="301"/>
<line fill="none" stroke="#FFFFFF" stroke-width="8" stroke-miterlimit="10" x1="171" y1="274" x2="138" y2="274"/>
<line fill="none" stroke="#FFFFFF" stroke-width="8" stroke-miterlimit="10" x1="171" y1="247" x2="138" y2="247"/>
<line fill="none" stroke="#FFFFFF" stroke-width="8" stroke-miterlimit="10" x1="171" y1="219" x2="138" y2="219"/>
<line fill="none" stroke="#FFFFFF" stroke-width="8" stroke-miterlimit="10" x1="171" y1="192" x2="138" y2="192"/>
<line fill="none" stroke="#FFFFFF" stroke-width="8" stroke-miterlimit="10" x1="398" y1="329" x2="365" y2="329"/>
<line fill="none" stroke="#FFFFFF" stroke-width="8" stroke-miterlimit="10" x1="398" y1="302" x2="365" y2="302"/>
<line fill="none" stroke="#FFFFFF" stroke-width="8" stroke-miterlimit="10" x1="398" y1="274" x2="365" y2="274"/>
<line fill="none" stroke="#FFFFFF" stroke-width="8" stroke-miterlimit="10" x1="398" y1="246" x2="365" y2="246"/>
<line fill="none" stroke="#FFFFFF" stroke-width="8" stroke-miterlimit="10" x1="398" y1="219" x2="365" y2="219"/>
<line fill="none" stroke="#FFFFFF" stroke-width="8" stroke-miterlimit="10" x1="398" y1="191" x2="365" y2="191"/>
</svg>
